<?xml version="1.0" standalone="no"?>
<!DOCTYPE svg PUBLIC "-//W3C//DTD SVG 20010904//EN"
 "http://www.w3.org/TR/2001/REC-SVG-20010904/DTD/svg10.dtd">
<svg version="1.0" xmlns="http://www.w3.org/2000/svg"
 width="512.000000pt" height="512.000000pt" viewBox="0 0 512.000000 512.000000"
 preserveAspectRatio="xMidYMid meet">
<metadata>
Created by potrace 1.14, written by Peter Selinger 2001-2017
</metadata>
<g transform="translate(0.000000,512.000000) scale(0.100000,-0.100000)"
fill="#000000" stroke="none">
<path d="M1188 3625 c-2 -2 -25 -6 -53 -9 -123 -14 -280 -69 -400 -140 -267
-159 -450 -425 -506 -738 -9 -50 -17 -68 -28 -69 -9 0 -41 -2 -71 -3 -66 -3
-95 -17 -115 -56 -19 -37 -19 -63 0 -100 21 -41 49 -53 128 -56 38 -1 70 -4
72 -6 2 -2 9 -35 15 -73 51 -318 274 -618 570 -766 83 -41 206 -85 261 -94
151 -23 281 -27 369 -11 218 39 344 93 504 215 210 159 369 432 400 686 3 20
7 40 10 43 7 6 424 7 431 0 2 -2 7 -22 10 -44 57 -375 301 -685 655 -831 95
-40 144 -53 252 -68 412 -57 808 123 1041 473 73 110 124 238 153 385 13 65
21 87 33 88 9 0 41 2 71 3 66 3 95 17 115 56 19 37 19 63 0 100 -20 39 -49 53
-110 56 -27 1 -60 2 -72 3 -18 1 -23 9 -28 49 -17 120 -74 279 -139 387 -225
374 -650 574 -1076 508 -129 -20 -185 -38 -315 -99 -289 -135 -524 -450 -575
-769 -6 -38 -13 -71 -15 -74 -6 -5 -424 -6 -429 0 -3 3 -10 34 -16 69 -6 36
-12 70 -14 75 -76 282 -229 493 -471 649 -94 61 -263 129 -351 141 -22 3 -52
8 -68 12 -32 6 -233 13 -238 8z m2742 -218 c318 -25 620 -268 720 -581 33
-102 39 -154 36 -291 -2 -126 -6 -149 -34 -233 -78 -228 -217 -392 -422 -499
-124 -65 -249 -95 -389 -94 -135 1 -240 23 -349 73 -307 139 -500 435 -504
772 -4 370 235 701 590 815 85 28 237 51 282 44 8 -1 40 -4 70 -6z m-2417 -25
c148 -45 258 -111 368 -221 121 -122 193 -252 233 -421 15 -67 17 -292 2 -355
-53 -225 -176 -407 -361 -532 -92 -63 -175 -98 -304 -129 -83 -20 -317 -12
-401 14 -149 45 -262 112 -370 221 -136 136 -209 279 -245 476 -7 39 -7 212 0
245 3 14 8 39 11 55 26 150 119 319 236 431 118 113 241 182 401 224 100 26
331 22 430 -8z"/>
<path d="M3695 3183 c-215 -49 -405 -228 -470 -443 -9 -30 -18 -89 -21 -130
-4 -63 -2 -80 15 -106 27 -44 77 -60 124 -40 47 19 65 50 71 116 21 225 175
383 397 405 76 8 106 24 125 72 12 28 13 42 3 70 -23 70 -102 89 -244 56z"/>
<path d="M1188 3194 c-2 -1 -16 -5 -33 -7 -169 -31 -353 -163 -433 -314 -69
-130 -101 -298 -68 -361 39 -75 147 -75 188 1 5 10 12 44 14 75 19 221 183
381 408 398 58 4 90 23 112 66 13 26 14 38 5 70 -17 54 -59 79 -133 77 -32 -1
-59 -3 -60 -5z"/>
</g>
</svg>
